<svg width="26" height="24" viewBox="0 0 26 24" id="ic_signal_wifi_statusbar_1_bar_26x24px" y="1704">
<path d="M13 21.99l5.66-7.05C18.44 14.78 16.27 13 13 13s-5.44 1.78-5.66 1.95L13 21.99z"/>
<path fill-opacity=".3" d="M13.01 21.99L25.58 6.32C25.1 5.96 20.26 2 13 2S.9 5.96.42 6.32l12.57 15.66.01.02.01-.01z"/>
</svg>
<svg width="26" height="24" viewBox="0 0 26 24" id="ic_signal_wifi_statusbar_2_bar_26x24px" y="1728">
<path fill-opacity=".3" d="M13.01 21.99L25.58 6.32C25.1 5.96 20.26 2 13 2S.9 5.96.42 6.32l12.57 15.66.01.02.01-.01z"/>
<path d="M13.01 21.99l7.54-9.4C20.26 12.38 17.36 10 13 10c-4.36 0-7.26 2.38-7.55 2.59l7.54 9.4h.02z"/>
</svg>
<svg width="26" height="24" viewBox="0 0 26 24" id="ic_signal_wifi_statusbar_3_bar_26x24px" y="1752">
<path d="M13.01 21.99l9.43-11.75C22.07 9.97 18.44 7 13 7c-5.44 0-9.07 2.97-9.44 3.24l9.43 11.75h.02z"/>
<path fill-opacity=".3" d="M13.01 21.99L25.58 6.32C25.1 5.96 20.26 2 13 2S.9 5.96.42 6.32l12.57 15.66.01.02.01-.01z"/>
</svg>
<svg width="26" height="24" viewBox="0 0 26 24" id="ic_signal_wifi_statusbar_4_bar_26x24px" y="1776">
<path d="M13.01 21.99L25.58 6.32C25.1 5.96 20.26 2 13 2S.9 5.96.42 6.32l12.57 15.66.01.02.01-.01z"/>
</svg>
<svg width="26" height="24" viewBox="0 0 26 24" id="ic_signal_wifi_statusbar_connected_no_internet_1_26x24px" y="1800">
<path fill-opacity=".3" d="M24.24 8l1.35-1.68C25.1 5.96 20.26 2 13 2S.9 5.96.42 6.32l12.57 15.66.01.02.01-.01L20 13.28V8h4.24z"/>
<path d="M7.34 14.95L13 21.99V22v-.01l5.66-7.05C18.44 14.78 16.27 13 13 13s-5.44 1.78-5.66 1.95zM22 22h2v-2h-2v2zm0-12v8h2v-8h-2z"/>
</svg>
<svg width="26" height="24" viewBox="0 0 26 24" id="ic_signal_wifi_statusbar_connected_no_internet_26x24px" y="1824">
<path fill-opacity=".3" d="M24.24 8l1.35-1.68C25.1 5.96 20.26 2 13 2S.9 5.96.42 6.32l12.57 15.66.01.02.01-.01L20 13.28V8h4.24z"/>
<path d="M22 22h2v-2h-2v2zm0-12v8h2v-8h-2z"/>
</svg>
<svg width="26" height="24" viewBox="0 0 26 24" id="ic_signal_wifi_statusbar_connected_no_internet_2_26x24px" y="1848">
<path fill-opacity=".3" d="M24.24 8l1.35-1.68C25.1 5.96 20.26 2 13 2S.9 5.96.42 6.32l12.57 15.66.01.02.01-.01L20 13.28V8h4.24z"/>
<path d="M5.45 12.59l7.54 9.4.01.01.01-.01L20 13.28v-1.09c-1.07-.73-3.59-2.19-7-2.19-4.36 0-7.26 2.38-7.55 2.59zM22 10v8h2v-8h-2zm0 12h2v-2h-2v2z"/>
</svg>
<svg width="26" height="24" viewBox="0 0 26 24" id="ic_signal_wifi_statusbar_connected_no_internet_3_26x24px" y="1872">
<path fill-opacity=".3" d="M24.24 8l1.35-1.68C25.1 5.96 20.26 2 13 2S.9 5.96.42 6.32l12.57 15.66.01.02.01-.01L20 13.28V8h4.24z"/>
<path d="M20 13.28V8.71C18.35 7.87 15.94 7 13 7c-5.44 0-9.07 2.97-9.44 3.24l9.43 11.75.01.01.01-.01L20 13.28zM22 22h2v-2h-2v2zm0-12v8h2v-8h-2z"/>
</svg>
<svg width="26" height="24" viewBox="0 0 26 24" id="ic_signal_wifi_statusbar_connected_no_internet_4_26x24px" y="1896">
<path d="M22 22h2v-2h-2v2zM13 2C5.74 2 .9 5.96.42 6.32l12.57 15.66.01.02.01-.01L20 13.28V8h4.24l1.35-1.68C25.1 5.96 20.26 2 13 2zm9 16h2v-8h-2v8z"/>
</svg>
<svg width="26" height="24" viewBox="0 0 26 24" id="ic_signal_wifi_statusbar_not_connected_26x24px" y="1920">
<path fill-opacity=".3" d="M21 8.5c.85 0 1.64.23 2.34.62l2.24-2.79C25.1 5.96 20.26 2 13 2S.9 5.96.42 6.32l12.57 15.66.01.02.01-.01 4.21-5.24c-.76-.87-1.22-2-1.22-3.25 0-2.76 2.24-5 5-5z"/>
<path d="M21 10c-1.93 0-3.5 1.57-3.5 3.5h1.75c0-.97.78-1.75 1.75-1.75s1.75.78 1.75 1.75c0 .48-.2.92-.51 1.24l-1.09 1.1c-.63.63-1.02 1.51-1.02 2.47v.44h1.75c0-1.31.39-1.84 1.03-2.47l.78-.8c.5-.5.82-1.2.82-1.97C24.5 11.57 22.93 10 21 10zm-.95 11.95h1.9v-1.9h-1.9v1.9z"/>
</svg>
<svg width="26" height="24" viewBox="0 0 26 24" id="ic_signal_wifi_statusbar_null_26x24px" y="1944">
<path d="M13 4c4.25 0 7.62 1.51 9.68 2.75L13 18.8 3.33 6.75C5.38 5.51 8.75 4 13 4m0-2C5.74 2 .9 5.96.42 6.32l12.57 15.66.01.02.01-.01L25.58 6.32C25.1 5.96 20.26 2 13 2z"/>
</svg>
<svg width="24" height="24" viewBox="0 0 24 24" id="ic_fiber_manual_record_24px" x="72" y="72">
<circle fill="#010101" cx="12" cy="12" r="8"/>
</svg>
<svg width="24" height="24" viewBox="0 0 24 24" id="ic_fiber_smart_record_24px" x="96" y="48">
<g fill="#010101">
<circle cx="9" cy="12" r="8"/>
<path d="M17 4.26v2.09a5.99 5.99 0 0 1 0 11.3v2.09c3.45-.89 6-4.01 6-7.74s-2.55-6.85-6-7.74z"/>
</g>
</svg>
